<?xml version="1.0" encoding="utf-8"?>
<!-- Generator: Adobe Illustrator 16.0.0, SVG Export Plug-In . SVG Version: 6.00 Build 0)  -->
<!DOCTYPE svg PUBLIC "-//W3C//DTD SVG 1.1//EN" "http://www.w3.org/Graphics/SVG/1.1/DTD/svg11.dtd">
<svg version="1.1" id="Layer_1" xmlns="http://www.w3.org/2000/svg" xmlns:xlink="http://www.w3.org/1999/xlink" x="0px" y="0px"
	 width="45px" height="45px" viewBox="0 0 45 45" enable-background="new 0 0 45 45" xml:space="preserve">
<g>
	<g>
		<circle fill="#FFFFFF" stroke="#000000" stroke-width="0.2651" cx="22.5" cy="22.48" r="22.091"/>
		<circle fill="#FFFFFF" stroke="#EC2327" stroke-width="0.5301" cx="22.5" cy="22.48" r="21.325"/>
		<circle fill="#EC2327" stroke="#000000" stroke-width="0.2651" cx="22.499" cy="22.48" r="16.26"/>
		<g>
			<path d="M5.662,19.564l-0.21,1.915l-3.386-0.371l0.209-1.915l0.468,0.051l-0.149,1.361l0.922,0.101l0.14-1.275l0.463,0.051
				l-0.14,1.275l1.063,0.117l0.149-1.362L5.662,19.564z"/>
			<path d="M5.646,16.698c0.242,0.068,0.403,0.209,0.482,0.422c0.08,0.213,0.072,0.484-0.021,0.813
				c-0.094,0.331-0.219,0.582-0.375,0.753l-0.455-0.129c0.217-0.253,0.361-0.505,0.433-0.756c0.091-0.325,0.039-0.515-0.156-0.57
				c-0.063-0.018-0.12-0.015-0.172,0.009S5.269,17.311,5.2,17.38c-0.068,0.07-0.151,0.169-0.249,0.3
				c-0.191,0.254-0.357,0.416-0.497,0.485c-0.139,0.07-0.296,0.079-0.473,0.029c-0.212-0.06-0.353-0.192-0.422-0.396
				c-0.068-0.205-0.062-0.454,0.022-0.749c0.083-0.292,0.22-0.55,0.412-0.777l0.349,0.283c-0.187,0.236-0.306,0.445-0.357,0.627
				c-0.079,0.278-0.039,0.439,0.12,0.484c0.078,0.021,0.154,0.004,0.228-0.053c0.074-0.058,0.192-0.194,0.356-0.412
				c0.137-0.182,0.251-0.31,0.343-0.384c0.092-0.074,0.188-0.121,0.286-0.142C5.417,16.658,5.526,16.664,5.646,16.698z"/>
			<path d="M6.755,14.14c0.229,0.106,0.365,0.271,0.409,0.493c0.045,0.222-0.004,0.489-0.148,0.799
				c-0.144,0.311-0.308,0.54-0.489,0.685l-0.43-0.198c0.254-0.216,0.436-0.443,0.546-0.68c0.142-0.305,0.121-0.501-0.064-0.587
				c-0.06-0.027-0.117-0.033-0.172-0.018c-0.056,0.016-0.122,0.053-0.2,0.11c-0.078,0.058-0.176,0.144-0.294,0.257
				c-0.229,0.221-0.417,0.355-0.565,0.401C5.2,15.45,5.043,15.435,4.877,15.357c-0.201-0.092-0.318-0.245-0.354-0.458
				c-0.036-0.212,0.011-0.458,0.14-0.735c0.126-0.275,0.303-0.509,0.528-0.703l0.3,0.333C5.269,14,5.119,14.188,5.039,14.36
				c-0.122,0.262-0.108,0.427,0.042,0.497c0.073,0.034,0.151,0.028,0.233-0.016c0.083-0.045,0.221-0.162,0.417-0.351
				c0.164-0.158,0.298-0.267,0.399-0.325c0.103-0.06,0.205-0.09,0.305-0.096C6.536,14.064,6.642,14.088,6.755,14.14z"/>
			<path d="M8.559,12.736c-0.228,0.33-0.501,0.522-0.822,0.576c-0.321,0.053-0.65-0.036-0.988-0.268
				c-0.347-0.238-0.56-0.513-0.64-0.822c-0.079-0.309-0.015-0.614,0.192-0.917c0.193-0.28,0.43-0.443,0.712-0.488
				c0.283-0.046,0.573,0.034,0.871,0.239l0.244,0.168l-0.973,1.414c0.21,0.135,0.407,0.188,0.59,0.16
				c0.182-0.029,0.339-0.138,0.471-0.329c0.086-0.125,0.155-0.25,0.205-0.375c0.051-0.124,0.092-0.267,0.122-0.43l0.366,0.253
				c-0.023,0.146-0.062,0.283-0.119,0.41C8.735,12.455,8.659,12.591,8.559,12.736z M6.644,11.541
				c-0.099,0.143-0.132,0.289-0.101,0.438c0.032,0.149,0.129,0.292,0.292,0.428l0.662-0.963c-0.176-0.118-0.338-0.167-0.485-0.147
				C6.865,11.315,6.743,11.396,6.644,11.541z"/>
			<path d="M9.114,9.895L7.608,9.632l0.436-0.446l1.055,0.21L8.868,8.342l0.433-0.443l0.295,1.5l1.579,0.268l-0.434,0.443
				L9.608,9.892l0.247,1.127l-0.433,0.443L9.114,9.895z"/>
			<path d="M11.012,8.479L10.729,8.11l0.95-0.729l0.284,0.37L11.012,8.479z"/>
			<path d="M15.676,6.772L15.11,7.081L13.432,6.24l-0.159,0.393l0.61,1.118l-0.489,0.267l-1.632-2.989l0.488-0.268l0.779,1.427
				c0.044-0.236,0.091-0.466,0.141-0.689l0.287-1.396l0.556-0.303c-0.187,0.898-0.323,1.54-0.407,1.924L15.676,6.772z"/>
			<path d="M15.249,3.498c-0.033-0.091-0.033-0.171-0.001-0.239c0.032-0.068,0.095-0.119,0.188-0.153
				c0.09-0.033,0.169-0.034,0.238-0.003c0.069,0.032,0.12,0.093,0.153,0.185c0.032,0.088,0.032,0.167,0,0.235
				c-0.032,0.069-0.093,0.12-0.183,0.152C15.55,3.708,15.469,3.709,15.4,3.677S15.281,3.585,15.249,3.498z M16.912,6.361
				l-0.515,0.188l-0.883-2.42l0.515-0.188L16.912,6.361z"/>
			<path d="M18.866,5.404c0.13-0.031,0.255-0.082,0.375-0.154l0.095,0.402c-0.053,0.04-0.124,0.079-0.212,0.119
				c-0.089,0.039-0.183,0.071-0.283,0.094c-0.505,0.12-0.82-0.086-0.946-0.619l-0.32-1.351l-0.342,0.082l-0.056-0.236l0.32-0.282
				l0.056-0.574l0.329-0.078l0.132,0.558l0.714-0.169l0.096,0.403l-0.714,0.17l0.317,1.342c0.031,0.128,0.085,0.216,0.164,0.262
				C18.67,5.418,18.762,5.429,18.866,5.404z"/>
			<path d="M21.33,5.512c-0.4,0.031-0.721-0.062-0.964-0.278c-0.243-0.215-0.38-0.528-0.411-0.937
				c-0.032-0.419,0.047-0.757,0.239-1.013c0.19-0.256,0.469-0.398,0.834-0.426c0.339-0.026,0.615,0.057,0.827,0.247
				c0.212,0.191,0.332,0.467,0.36,0.828l0.022,0.295l-1.712,0.131c0.027,0.249,0.109,0.435,0.246,0.56
				c0.137,0.124,0.321,0.177,0.552,0.16c0.152-0.012,0.292-0.037,0.421-0.076c0.128-0.039,0.266-0.097,0.41-0.175l0.034,0.444
				c-0.128,0.073-0.259,0.128-0.394,0.166C21.659,5.474,21.504,5.499,21.33,5.512z M21.058,3.271
				c-0.173,0.013-0.308,0.079-0.404,0.197c-0.096,0.118-0.146,0.283-0.15,0.495l1.166-0.088c-0.019-0.212-0.083-0.369-0.19-0.471
				C21.372,3.302,21.231,3.258,21.058,3.271z"/>
			<path d="M23.156,4.383l0.031-0.465L24.383,4l-0.03,0.465L23.156,4.383z"/>
			<path d="M27.968,3.79c-0.078,0.347-0.251,0.588-0.52,0.722c-0.27,0.134-0.611,0.154-1.033,0.06l-0.344-0.077l-0.279,1.244
				l-0.545-0.122l0.745-3.324l0.957,0.214c0.415,0.093,0.708,0.248,0.877,0.463C27.993,3.186,28.042,3.459,27.968,3.79z
				 M26.171,4.037l0.291,0.064c0.277,0.062,0.493,0.06,0.645-0.008c0.152-0.068,0.252-0.205,0.297-0.411
				c0.043-0.191,0.018-0.346-0.078-0.467s-0.267-0.208-0.515-0.263l-0.378-0.084L26.171,4.037z"/>
			<path d="M29.828,7.064l0.041-0.373l-0.017-0.007c-0.176,0.095-0.334,0.144-0.473,0.145c-0.138,0.002-0.297-0.036-0.479-0.114
				c-0.231-0.1-0.387-0.241-0.463-0.423c-0.074-0.182-0.062-0.388,0.036-0.617c0.104-0.244,0.274-0.389,0.509-0.434
				c0.234-0.046,0.541,0.005,0.916,0.154l0.414,0.164l0.055-0.126c0.064-0.151,0.078-0.28,0.04-0.385
				c-0.038-0.106-0.132-0.19-0.278-0.254c-0.123-0.052-0.246-0.084-0.373-0.097c-0.126-0.012-0.252-0.016-0.375-0.012l-0.008-0.43
				c0.157-0.012,0.32-0.002,0.488,0.029s0.318,0.075,0.454,0.134c0.3,0.13,0.499,0.293,0.597,0.491
				c0.096,0.197,0.084,0.437-0.038,0.717L30.187,7.22L29.828,7.064z M29.226,6.398c0.184,0.079,0.353,0.091,0.507,0.037
				c0.155-0.054,0.272-0.173,0.351-0.357l0.09-0.206l-0.311-0.119c-0.239-0.093-0.429-0.128-0.567-0.104
				c-0.138,0.023-0.238,0.108-0.302,0.254c-0.045,0.105-0.049,0.2-0.012,0.285C29.02,6.275,29.101,6.344,29.226,6.398z"/>
			<path d="M33.669,6.265c0.094,0.06,0.166,0.115,0.219,0.167l-0.32,0.401c-0.057-0.058-0.119-0.109-0.19-0.154
				c-0.185-0.119-0.372-0.154-0.563-0.107s-0.349,0.167-0.473,0.359l-0.727,1.134l-0.46-0.295l1.39-2.169l0.361,0.231L32.72,6.252
				l0.025,0.015C32.9,6.184,33.06,6.141,33.223,6.14C33.388,6.138,33.536,6.18,33.669,6.265z"/>
			<path d="M34.446,8.459l0.488-0.081l1.133-0.1L36.538,8.7l-1.51,0.133l-0.16,1.83l-0.479-0.429l0.136-1.394l-0.387-0.017
				l-0.59,0.659l-0.403-0.362l2.417-2.701l0.403,0.362l-1.178,1.317L34.435,8.45L34.446,8.459z"/>
			<path d="M35.528,11.025c0.088-0.073,0.174-0.106,0.258-0.101c0.084,0.006,0.162,0.052,0.234,0.138
				c0.073,0.086,0.105,0.172,0.096,0.258s-0.058,0.164-0.141,0.233c-0.084,0.071-0.17,0.105-0.258,0.101
				c-0.088-0.004-0.168-0.049-0.239-0.134c-0.073-0.085-0.104-0.171-0.093-0.257C35.396,11.177,35.444,11.098,35.528,11.025z"/>
			<path d="M36.938,13.485c-0.21-0.328-0.277-0.638-0.195-0.932c0.082-0.293,0.301-0.556,0.658-0.786
				c0.365-0.234,0.703-0.326,1.014-0.274c0.312,0.052,0.574,0.247,0.792,0.583c0.147,0.228,0.237,0.461,0.271,0.699l-0.46,0.1
				c-0.05-0.244-0.114-0.429-0.198-0.555c-0.24-0.375-0.611-0.401-1.107-0.081c-0.242,0.156-0.395,0.32-0.457,0.493
				c-0.062,0.172-0.035,0.348,0.082,0.528c0.133,0.205,0.309,0.366,0.526,0.483l-0.399,0.259c-0.102-0.052-0.193-0.117-0.275-0.197
				C37.108,13.725,37.024,13.619,36.938,13.485z"/>
			<path d="M39.894,16.501c-0.389,0.163-0.732,0.191-1.035,0.083c-0.301-0.108-0.526-0.339-0.676-0.694
				c-0.092-0.222-0.124-0.439-0.096-0.652c0.028-0.212,0.117-0.403,0.267-0.574c0.149-0.17,0.347-0.308,0.595-0.412
				c0.385-0.161,0.728-0.189,1.026-0.082c0.3,0.106,0.524,0.339,0.676,0.698c0.145,0.345,0.147,0.663,0.011,0.956
				C40.524,16.119,40.27,16.344,39.894,16.501z M39.167,14.772c-0.548,0.23-0.738,0.549-0.566,0.954
				c0.168,0.4,0.525,0.486,1.073,0.255c0.544-0.229,0.73-0.544,0.562-0.948c-0.09-0.212-0.225-0.335-0.405-0.372
				C39.649,14.626,39.429,14.663,39.167,14.772z"/>
			<path d="M39.38,20.013l-0.089-0.542l1.569-0.254c0.193-0.031,0.334-0.092,0.416-0.181c0.085-0.089,0.115-0.212,0.089-0.368
				c-0.034-0.209-0.126-0.351-0.278-0.426c-0.151-0.075-0.385-0.088-0.701-0.036l-1.267,0.205l-0.087-0.54l2.543-0.412l0.068,0.424
				l-0.32,0.129l0.004,0.028c0.133,0.051,0.242,0.138,0.33,0.262c0.088,0.123,0.145,0.265,0.171,0.427
				c0.062,0.391-0.029,0.671-0.274,0.842l0.006,0.037c0.138,0.054,0.254,0.145,0.346,0.27s0.154,0.275,0.183,0.452
				c0.048,0.304,0.007,0.538-0.122,0.701c-0.131,0.163-0.355,0.271-0.668,0.322l-1.659,0.268l-0.087-0.541l1.567-0.253
				c0.195-0.032,0.334-0.093,0.419-0.183c0.084-0.09,0.113-0.213,0.086-0.369c-0.033-0.21-0.124-0.353-0.271-0.429
				s-0.354-0.093-0.627-0.048L39.38,20.013z"/>
		</g>
		<g>
			<path d="M2.462,26.58l-0.291-1.904l3.367-0.516l0.291,1.905l-0.465,0.071l-0.207-1.355L4.24,24.923l0.194,1.269l-0.46,0.071
				L3.78,24.994l-1.057,0.16l0.207,1.355L2.462,26.58z"/>
			<path d="M4.059,29.451C3.82,29.528,3.608,29.5,3.424,29.366c-0.185-0.133-0.329-0.36-0.434-0.687
				c-0.105-0.326-0.141-0.605-0.106-0.836l0.45-0.146c-0.04,0.331-0.02,0.622,0.061,0.871c0.104,0.319,0.252,0.448,0.446,0.387
				c0.062-0.021,0.108-0.056,0.138-0.104c0.03-0.05,0.054-0.122,0.072-0.218c0.019-0.096,0.032-0.225,0.042-0.387
				c0.018-0.318,0.066-0.544,0.143-0.68c0.077-0.135,0.202-0.23,0.377-0.287c0.209-0.067,0.399-0.037,0.571,0.096
				c0.17,0.132,0.302,0.344,0.396,0.635c0.094,0.287,0.123,0.58,0.09,0.873l-0.447-0.04c0.024-0.3,0.007-0.542-0.051-0.722
				c-0.089-0.273-0.212-0.387-0.368-0.335c-0.077,0.024-0.131,0.081-0.161,0.171c-0.03,0.088-0.052,0.268-0.068,0.539
				c-0.013,0.229-0.037,0.397-0.073,0.512c-0.035,0.111-0.088,0.203-0.159,0.275C4.271,29.357,4.178,29.412,4.059,29.451z"/>
			<path d="M5.318,32.158C5.094,32.27,4.88,32.275,4.678,32.17c-0.201-0.104-0.379-0.309-0.531-0.615
				c-0.153-0.306-0.229-0.576-0.229-0.809l0.423-0.211c0.01,0.333,0.073,0.616,0.189,0.85c0.15,0.302,0.316,0.408,0.499,0.316
				c0.059-0.029,0.099-0.069,0.121-0.122c0.022-0.054,0.036-0.13,0.039-0.226c0.004-0.098-0.002-0.227-0.018-0.39
				c-0.029-0.317-0.016-0.548,0.041-0.692c0.055-0.146,0.166-0.26,0.33-0.342c0.198-0.098,0.39-0.096,0.579,0.011
				c0.188,0.104,0.351,0.294,0.487,0.567c0.136,0.271,0.208,0.556,0.219,0.852l-0.448,0.025c-0.021-0.301-0.074-0.534-0.158-0.704
				c-0.129-0.259-0.267-0.351-0.415-0.278c-0.072,0.037-0.116,0.102-0.133,0.193c-0.017,0.092-0.012,0.272,0.013,0.544
				c0.021,0.226,0.023,0.398,0.005,0.517c-0.018,0.115-0.057,0.215-0.116,0.297C5.515,32.033,5.43,32.103,5.318,32.158z"/>
			<path d="M6.016,34.634c-0.235-0.324-0.324-0.647-0.268-0.968c0.057-0.319,0.25-0.601,0.583-0.84
				c0.34-0.247,0.67-0.357,0.988-0.329c0.317,0.028,0.584,0.191,0.8,0.487c0.199,0.276,0.274,0.554,0.222,0.835
				c-0.051,0.282-0.224,0.528-0.516,0.739l-0.24,0.175l-1.008-1.391c-0.198,0.153-0.314,0.321-0.348,0.503
				c-0.034,0.183,0.018,0.367,0.153,0.555c0.089,0.123,0.184,0.229,0.284,0.318c0.101,0.09,0.222,0.176,0.365,0.259l-0.36,0.261
				c-0.131-0.071-0.246-0.154-0.348-0.248C6.222,34.895,6.119,34.776,6.016,34.634z M7.783,33.229
				c-0.102-0.141-0.229-0.221-0.38-0.242c-0.15-0.019-0.317,0.024-0.5,0.133l0.687,0.947c0.17-0.129,0.271-0.264,0.301-0.41
				C7.921,33.512,7.885,33.369,7.783,33.229z"/>
			<path d="M8.871,35.891l0.264-1.504l0.446,0.436L9.37,35.877l1.054-0.229l0.442,0.434l-1.501,0.294l-0.271,1.578L8.653,37.52
				l0.22-1.133l-1.127,0.244l-0.443-0.434L8.871,35.891z"/>
			<path d="M10.504,37.723l0.276-0.375l0.963,0.709l-0.276,0.376L10.504,37.723z"/>
			<path d="M14.319,41.268l-0.57-0.302l-0.226-1.862l-0.416,0.083l-0.595,1.128l-0.493-0.261l1.591-3.013l0.492,0.26l-0.758,1.438
				c0.221-0.092,0.439-0.182,0.653-0.262l1.321-0.534l0.561,0.297c-0.852,0.341-1.462,0.581-1.828,0.724L14.319,41.268z"/>
			<path d="M15.943,41.838l-0.516-0.184l0.863-2.427l0.516,0.183L15.943,41.838z M16.487,38.573
				c0.033-0.093,0.084-0.154,0.152-0.187c0.068-0.031,0.149-0.031,0.243,0.002c0.09,0.032,0.152,0.082,0.185,0.15
				c0.033,0.067,0.033,0.148,0,0.24c-0.031,0.088-0.08,0.146-0.149,0.181c-0.069,0.031-0.148,0.031-0.239,0
				c-0.093-0.034-0.157-0.085-0.189-0.152C16.457,38.738,16.457,38.661,16.487,38.573z"/>
			<path d="M18.396,42.105c0.13,0.029,0.266,0.039,0.405,0.029l-0.093,0.401c-0.065,0.012-0.146,0.015-0.243,0.012
				c-0.098-0.005-0.196-0.02-0.296-0.042c-0.505-0.117-0.696-0.442-0.572-0.975l0.314-1.354L17.568,40.1l0.055-0.236l0.414-0.11
				l0.305-0.487l0.329,0.076L18.541,39.9l0.714,0.166l-0.094,0.402l-0.714-0.164l-0.312,1.342c-0.03,0.13-0.021,0.231,0.029,0.307
				C18.214,42.029,18.292,42.08,18.396,42.105z"/>
			<path d="M21.108,42.926c-0.399-0.031-0.703-0.172-0.91-0.422c-0.208-0.251-0.296-0.58-0.265-0.988
				c0.032-0.42,0.162-0.741,0.389-0.967c0.228-0.224,0.524-0.32,0.889-0.295c0.339,0.027,0.6,0.152,0.78,0.372
				c0.181,0.222,0.258,0.512,0.23,0.872L22.2,41.793l-1.712-0.129c-0.011,0.25,0.042,0.445,0.159,0.589
				c0.117,0.145,0.29,0.224,0.521,0.243c0.152,0.012,0.294,0.008,0.427-0.012c0.133-0.018,0.277-0.055,0.433-0.109l-0.034,0.442
				c-0.138,0.054-0.276,0.089-0.414,0.104C21.44,42.938,21.283,42.938,21.108,42.926z M21.18,40.668
				c-0.174-0.012-0.317,0.033-0.43,0.135c-0.112,0.102-0.187,0.258-0.223,0.467l1.167,0.088c0.012-0.213-0.026-0.377-0.117-0.492
				C21.486,40.748,21.354,40.683,21.18,40.668z"/>
			<path d="M23.216,41.878l-0.032-0.466l1.195-0.08l0.03,0.465L23.216,41.878z"/>
			<path d="M27.571,39.868c0.074,0.347,0.02,0.638-0.168,0.874c-0.186,0.234-0.489,0.398-0.91,0.49l-0.346,0.074l0.273,1.246
				l-0.545,0.12l-0.729-3.327l0.959-0.21c0.415-0.092,0.746-0.075,0.989,0.05C27.34,39.311,27.497,39.537,27.571,39.868z
				 M26.048,40.851l0.289-0.062c0.278-0.062,0.473-0.156,0.582-0.283c0.109-0.125,0.141-0.291,0.096-0.497
				c-0.043-0.19-0.131-0.321-0.27-0.39c-0.137-0.068-0.33-0.074-0.576-0.021l-0.377,0.082L26.048,40.851z"/>
			<path d="M30.956,41.111l-0.24-0.29l-0.017,0.007c-0.056,0.191-0.13,0.34-0.224,0.439c-0.094,0.102-0.232,0.189-0.415,0.265
				c-0.234,0.097-0.442,0.11-0.627,0.038c-0.184-0.072-0.322-0.222-0.419-0.453c-0.103-0.244-0.087-0.469,0.043-0.67
				c0.131-0.2,0.379-0.383,0.748-0.549l0.405-0.184l-0.054-0.127c-0.062-0.152-0.146-0.252-0.248-0.298
				c-0.102-0.046-0.229-0.036-0.377,0.024c-0.121,0.051-0.23,0.117-0.329,0.2c-0.097,0.081-0.187,0.169-0.269,0.261l-0.314-0.294
				c0.101-0.12,0.223-0.231,0.359-0.329c0.14-0.1,0.277-0.178,0.414-0.234c0.301-0.125,0.557-0.154,0.767-0.086
				c0.21,0.067,0.372,0.242,0.49,0.525l0.666,1.604L30.956,41.111z M30.058,41.08c0.184-0.077,0.311-0.189,0.379-0.34
				c0.069-0.146,0.065-0.314-0.012-0.499l-0.086-0.206l-0.301,0.139c-0.234,0.109-0.391,0.221-0.469,0.336
				c-0.08,0.116-0.09,0.248-0.028,0.394c0.045,0.105,0.11,0.177,0.197,0.207C29.826,41.142,29.932,41.131,30.058,41.08z"/>
			<path d="M32.44,37.301c0.094-0.057,0.174-0.1,0.244-0.124l0.221,0.464c-0.074,0.024-0.148,0.059-0.221,0.103
				c-0.187,0.115-0.301,0.269-0.342,0.462c-0.04,0.193,0,0.387,0.119,0.582l0.704,1.146l-0.465,0.287l-1.35-2.195l0.364-0.225
				l0.3,0.348l0.023-0.013c-0.008-0.177,0.024-0.339,0.094-0.488C32.202,37.5,32.305,37.383,32.44,37.301z"/>
			<path d="M34.601,37.26l-0.016-0.494l0.049-1.137l0.48-0.41l-0.066,1.514l1.793,0.398l-0.488,0.419L34.99,37.23l-0.067,0.383
				l0.574,0.672l-0.413,0.354l-2.358-2.752l0.412-0.354l1.15,1.342l0.303,0.394L34.601,37.26z"/>
			<path d="M37.356,36.122c-0.086-0.075-0.131-0.155-0.139-0.239c-0.006-0.084,0.029-0.168,0.104-0.252
				c0.075-0.085,0.155-0.127,0.242-0.131c0.086-0.002,0.17,0.033,0.252,0.105s0.127,0.154,0.136,0.241
				c0.008,0.088-0.024,0.173-0.099,0.257s-0.154,0.126-0.242,0.128C37.524,36.232,37.438,36.197,37.356,36.122z"/>
			<path d="M39.563,33.85c-0.219,0.322-0.48,0.502-0.782,0.541c-0.303,0.037-0.629-0.062-0.981-0.301
				c-0.357-0.246-0.572-0.521-0.645-0.827c-0.074-0.307,0.003-0.626,0.229-0.956c0.153-0.225,0.333-0.398,0.539-0.521l0.271,0.387
				c-0.205,0.139-0.35,0.271-0.437,0.396c-0.251,0.367-0.132,0.719,0.357,1.053c0.238,0.162,0.448,0.24,0.63,0.229
				c0.185-0.01,0.336-0.104,0.456-0.279c0.138-0.201,0.218-0.426,0.239-0.674l0.396,0.269c-0.008,0.114-0.033,0.224-0.076,0.329
				C39.72,33.601,39.653,33.719,39.563,33.85z"/>
			<path d="M40.425,29.369c0.383,0.176,0.635,0.412,0.76,0.707c0.124,0.295,0.107,0.617-0.056,0.967
				c-0.1,0.219-0.237,0.39-0.415,0.512c-0.175,0.123-0.375,0.186-0.604,0.191c-0.226,0.006-0.461-0.047-0.705-0.16
				c-0.379-0.174-0.631-0.408-0.754-0.701c-0.124-0.293-0.104-0.615,0.059-0.97c0.155-0.339,0.388-0.556,0.696-0.655
				C39.716,29.164,40.055,29.199,40.425,29.369z M39.642,31.074c0.539,0.248,0.901,0.173,1.085-0.227
				c0.183-0.395,0.003-0.717-0.538-0.965c-0.535-0.248-0.894-0.171-1.077,0.227c-0.096,0.209-0.096,0.393,0,0.551
				C39.205,30.816,39.384,30.955,39.642,31.074z"/>
			<path d="M42.604,26.297l-0.111,0.538l-1.556-0.319c-0.193-0.041-0.345-0.033-0.456,0.021c-0.109,0.053-0.18,0.157-0.212,0.312
				c-0.042,0.206-0.006,0.373,0.108,0.497c0.115,0.125,0.33,0.219,0.642,0.283l1.258,0.259l-0.109,0.536l-2.524-0.519l0.087-0.419
				l0.346-0.008l0.005-0.027c-0.105-0.096-0.178-0.216-0.216-0.361c-0.038-0.147-0.04-0.301-0.007-0.461
				c0.078-0.387,0.264-0.617,0.555-0.689l0.008-0.037c-0.109-0.1-0.186-0.225-0.227-0.375c-0.043-0.148-0.045-0.312-0.012-0.486
				c0.062-0.302,0.184-0.506,0.364-0.611c0.18-0.107,0.427-0.129,0.739-0.064l1.645,0.338l-0.109,0.537l-1.557-0.321
				c-0.193-0.039-0.345-0.031-0.455,0.022c-0.109,0.055-0.182,0.16-0.213,0.314c-0.043,0.209-0.009,0.375,0.102,0.498
				c0.109,0.122,0.299,0.213,0.568,0.268L42.604,26.297z"/>
		</g>
	</g>
	<g>
		<path fill="#FFFFFF" d="M12.345,12.384v20.191h20.191V12.384H12.345z"/>
		<path d="M13.093,13.133v5.234h5.235v-5.234H13.093z M19.823,13.133v2.243h-0.748v1.496h0.748v0.747h-0.748v0.748h0.748v1.496
			h-0.748v-0.748h-2.243v0.748h2.243v0.748h-2.243v0.748h1.496v0.748H17.58v0.748h-0.748v0.747h0.748v0.749h-0.748v0.747h-0.748
			v-2.243h-0.748v1.496h-0.748v1.495h2.244v-0.748h0.748v0.748h1.495v2.243h2.244v-0.747h0.748v-1.496h2.245v-1.495h0.746v2.991
			h-0.746v-0.748h-0.748v1.495h-0.749v1.497h-0.748v-0.748h-2.244v0.748h0.748v0.746h0.748v0.748h-0.748v0.749h0.748V31.08h0.748
			v0.749h0.748V31.08h-0.748v-0.748h1.497v1.497h0.748v-1.497h0.746v1.497h2.244V31.08h1.496v0.749h0.747V31.08h-0.747v-0.748H28.05
			v-0.746h-0.748v-0.748h1.496v0.748h0.747v0.746h0.748v-0.746h0.749v2.243h0.748v-2.991h-0.748v-0.749h-2.244v-0.747h0.747v-0.748
			h0.748v-2.243h0.749v0.747h0.748v-1.496h-0.748v-0.747h0.748v-2.244h-0.748v-0.748h-1.497v-0.748H28.05v0.748h-0.748v0.748h-0.748
			v-0.748h-0.747v0.748h0.747v0.748h-1.496v-2.243h0.749v-2.992h-0.749v2.992h-2.243v-1.497h0.749v0.748h0.748v-0.748h-0.748v-0.747
			h0.748v-0.748h-0.748v-0.748h1.494v-0.749h-1.494v0.749h-0.749v-0.749h-0.748v0.749h0.748v0.748h0.749v0.748h-0.749v0.747h-0.748
			v0.748h-0.748v-1.495h0.748v-0.748h-0.748v-0.748h-0.748v-2.243H19.823z M22.815,13.133v0.748h1.497v-0.748H22.815z
			 M26.554,13.133v5.234h5.236v-5.234H26.554z"/>
		<path fill="#FFFFFF" d="M13.841,13.88v3.739h3.739V13.88H13.841z M27.302,13.88v3.739h3.74V13.88H27.302z"/>
		<path d="M14.588,14.627v2.245h2.244v-2.245H14.588z M28.05,14.627v2.245h2.243v-2.245H28.05z"/>
		<path fill="#FFFFFF" d="M19.823,15.376v1.496h1.496v-0.748h-0.748v-0.748H19.823z M19.823,17.619v0.748h0.748v0.749h0.748v0.748
			h0.748v-0.748h-0.748v-0.749h-0.748v-0.748H19.823z"/>
		<path d="M13.093,19.116v1.495h1.496v-1.495H13.093z"/>
		<path fill="#FFFFFF" d="M19.823,19.863v0.748h0.748v0.748h-0.748v0.748h-1.495v0.748H17.58v0.747h0.748v0.749H17.58v0.747h0.748
			v-0.747h0.747v1.495h0.748v1.496h0.748v-0.748h0.748v-1.496h-0.748v-0.747h-1.496v-0.749h-0.747v-0.747h1.495v-0.748h0.748v-0.748
			h1.496v0.748h-0.748v0.748h0.748v-0.748h0.748v0.748h0.749v0.747h0.748v-0.747h-0.748v-1.496h0.748v0.748h0.746v0.748h0.749v0.747
			h1.495v-0.747h0.748v1.496h0.748v2.243h0.747v-2.243h0.748v-1.496h0.749v-1.496h-0.749v-0.748h-0.748v1.496h-0.747v-0.748h-2.244
			v0.748h-1.496v-0.748h-0.746v-0.748h-0.748v0.748h-0.749v-0.748h-2.244v-0.748H19.823z"/>
		<path d="M15.336,20.611v0.748h-2.244v4.487h0.748v-2.244h0.748v-0.747h-0.748v-0.748h1.496v-0.748h0.748v-0.748H15.336z
			 M26.554,22.106v0.748h0.748v-0.748H26.554z"/>
		<path fill="#FFFFFF" d="M21.319,23.602v0.749h1.496v0.747h0.749v-0.747h-0.749v-0.749H21.319z"/>
		<path d="M28.798,23.602v0.749h0.747v-0.749H28.798z M19.823,25.098v0.748h0.748v-0.748H19.823z"/>
		<path fill="#FFFFFF" d="M25.807,25.846v2.243h2.243v-2.243H25.807z"/>
		<path d="M13.093,26.594v5.235h5.235v-5.235H13.093z M26.554,26.594v0.748h0.748v-0.748H26.554z M31.042,26.594v0.748h0.748v-0.748
			H31.042z"/>
		<path fill="#FFFFFF" d="M13.841,27.342v3.738h3.739v-3.738H13.841z"/>
		<path d="M14.588,28.089v2.243h2.244v-2.243H14.588z"/>
		<path fill="#FFFFFF" d="M25.058,28.838v0.748h0.749v-0.748H25.058z M29.545,28.838v0.748h0.748v-0.748H29.545z M21.319,29.586
			v0.746h0.748v-0.746H21.319z M26.554,29.586v0.746h-0.747v0.748h1.495v-1.494H26.554z"/>
		<path d="M19.075,30.332v1.497h0.748v-1.497H19.075z"/>
	</g>
</g>
</svg>
