<?xml version="1.0" encoding="utf-8"?>
<!-- Generator: Adobe Illustrator 16.0.0, SVG Export Plug-In . SVG Version: 6.00 Build 0)  -->
<!DOCTYPE svg PUBLIC "-//W3C//DTD SVG 1.1//EN" "http://www.w3.org/Graphics/SVG/1.1/DTD/svg11.dtd">
<svg version="1.1" id="Layer_1" xmlns="http://www.w3.org/2000/svg" xmlns:xlink="http://www.w3.org/1999/xlink" x="0px" y="0px"
	 width="200px" height="200px" viewBox="0 0 200 200" enable-background="new 0 0 200 200" xml:space="preserve">
<g>
	<g>
		<circle fill="#FFFFFF" stroke="#000000" stroke-width="1.2075" cx="99.332" cy="100" r="92.289"/>
		<circle fill="#FFFFFF" stroke="#EC2327" stroke-width="2.415" cx="99.332" cy="100" r="89.09"/>
		<circle fill="#EC2327" stroke="#000000" stroke-width="1.2075" cx="99.332" cy="100" r="67.927"/>
		<g>
			<path d="M28.991,87.815l-0.876,8.001l-14.144-1.55l0.876-8.001l1.954,0.214l-0.623,5.688l3.851,0.422l0.584-5.331l1.935,0.212
				l-0.584,5.331l4.441,0.486l0.623-5.688L28.991,87.815z"/>
			<path d="M28.923,75.843c1.012,0.287,1.682,0.875,2.014,1.764c0.331,0.89,0.302,2.021-0.086,3.395
				c-0.392,1.38-0.914,2.429-1.569,3.147L27.38,83.61c0.907-1.059,1.509-2.112,1.805-3.161c0.384-1.354,0.167-2.147-0.651-2.379
				c-0.262-0.074-0.502-0.062-0.719,0.039c-0.217,0.101-0.469,0.296-0.753,0.585c-0.285,0.291-0.632,0.708-1.042,1.253
				c-0.8,1.061-1.49,1.737-2.072,2.028c-0.581,0.29-1.24,0.331-1.976,0.123c-0.887-0.251-1.474-0.803-1.761-1.657
				c-0.288-0.854-0.257-1.895,0.091-3.125c0.345-1.217,0.918-2.299,1.718-3.246l1.456,1.181c-0.779,0.986-1.276,1.861-1.492,2.623
				c-0.329,1.161-0.163,1.835,0.5,2.022c0.324,0.092,0.642,0.019,0.952-0.221c0.311-0.239,0.807-0.812,1.488-1.718
				c0.573-0.761,1.052-1.296,1.436-1.606c0.385-0.309,0.783-0.507,1.195-0.592S28.423,75.701,28.923,75.843z"/>
			<path d="M33.558,65.158c0.954,0.442,1.524,1.128,1.711,2.059c0.188,0.931-0.019,2.044-0.619,3.339
				c-0.603,1.301-1.284,2.255-2.044,2.861l-1.792-0.831c1.062-0.903,1.821-1.849,2.279-2.838c0.592-1.277,0.502-2.095-0.269-2.452
				c-0.247-0.115-0.486-0.139-0.716-0.074c-0.23,0.065-0.509,0.219-0.835,0.46c-0.326,0.242-0.735,0.6-1.226,1.073
				c-0.957,0.923-1.745,1.482-2.364,1.677c-0.62,0.196-1.277,0.133-1.972-0.189c-0.836-0.387-1.329-1.025-1.479-1.913
				c-0.15-0.889,0.044-1.912,0.581-3.072c0.532-1.148,1.268-2.126,2.207-2.935l1.252,1.395c-0.923,0.852-1.552,1.637-1.884,2.355
				c-0.507,1.095-0.449,1.787,0.175,2.076c0.306,0.142,0.631,0.119,0.975-0.068c0.345-0.188,0.924-0.675,1.74-1.462
				c0.685-0.662,1.242-1.116,1.67-1.361c0.428-0.245,0.853-0.377,1.272-0.397C32.642,64.841,33.087,64.94,33.558,65.158z"/>
			<path d="M41.092,59.29c-0.949,1.378-2.093,2.181-3.433,2.404c-1.339,0.225-2.714-0.148-4.125-1.119
				c-1.449-0.997-2.339-2.141-2.671-3.433c-0.332-1.291-0.064-2.568,0.804-3.829c0.805-1.171,1.797-1.852,2.975-2.041
				s2.39,0.144,3.635,1.001l1.018,0.701l-4.065,5.909c0.879,0.566,1.701,0.789,2.464,0.667c0.764-0.119,1.42-0.578,1.968-1.375
				c0.361-0.524,0.647-1.046,0.858-1.565c0.212-0.52,0.382-1.118,0.508-1.794l1.532,1.053c-0.098,0.611-0.263,1.183-0.495,1.716
				C41.832,58.117,41.508,58.685,41.092,59.29z M33.093,54.295c-0.412,0.598-0.552,1.209-0.42,1.831
				c0.131,0.622,0.537,1.218,1.216,1.787l2.77-4.025c-0.74-0.493-1.417-0.697-2.028-0.615
				C34.018,53.355,33.505,53.696,33.093,54.295z"/>
			<path d="M43.411,47.423l-6.29-1.097l1.823-1.865l4.408,0.877l-0.967-4.4l1.809-1.853l1.236,6.27l6.593,1.12l-1.809,1.852
				l-4.739-0.915l1.032,4.709l-1.809,1.852L43.411,47.423z"/>
			<path d="M51.343,41.511l-1.185-1.544l3.968-3.045l1.185,1.544L51.343,41.511z"/>
			<path d="M70.828,34.376l-2.366,1.292l-7.008-3.514l-0.668,1.64l2.552,4.672l-2.042,1.115l-6.819-12.489l2.041-1.115l3.256,5.962
				c0.185-0.988,0.38-1.949,0.588-2.883l1.196-5.831l2.323-1.269c-0.781,3.754-1.348,6.433-1.699,8.037L70.828,34.376z"/>
			<path d="M69.044,20.699c-0.14-0.384-0.143-0.718-0.008-1.002c0.135-0.284,0.397-0.497,0.787-0.64
				c0.378-0.138,0.71-0.141,0.996-0.011c0.286,0.13,0.499,0.388,0.639,0.772c0.134,0.365,0.134,0.692,0,0.979
				c-0.134,0.287-0.389,0.5-0.767,0.638c-0.391,0.142-0.729,0.147-1.016,0.013C69.387,21.315,69.177,21.065,69.044,20.699z
				 M75.987,32.66l-2.148,0.784l-3.689-10.113l2.149-0.784L75.987,32.66z"/>
			<path d="M84.152,28.665c0.542-0.129,1.065-0.343,1.568-0.642l0.397,1.676c-0.221,0.166-0.517,0.331-0.888,0.495
				s-0.765,0.297-1.182,0.395c-2.108,0.5-3.426-0.362-3.952-2.584l-1.337-5.644l-1.43,0.339l-0.233-0.985l1.341-1.178l0.233-2.396
				l1.373-0.325l0.552,2.33l2.983-0.707l0.399,1.686l-2.983,0.707l1.328,5.606c0.127,0.537,0.355,0.901,0.684,1.094
				C83.334,28.723,83.716,28.768,84.152,28.665z"/>
			<path d="M94.443,29.115c-1.669,0.127-3.012-0.26-4.027-1.163c-1.015-0.901-1.588-2.207-1.719-3.915
				c-0.133-1.753,0.198-3.165,0.995-4.234s1.959-1.663,3.485-1.779c1.417-0.108,2.568,0.237,3.457,1.035
				c0.886,0.798,1.388,1.95,1.503,3.458l0.094,1.232l-7.152,0.546c0.112,1.04,0.454,1.818,1.027,2.337s1.342,0.742,2.306,0.668
				c0.634-0.049,1.219-0.153,1.757-0.315c0.537-0.161,1.109-0.405,1.716-0.731l0.142,1.854c-0.537,0.308-1.085,0.538-1.646,0.692
				C95.82,28.954,95.174,29.059,94.443,29.115z M93.309,19.752c-0.725,0.056-1.288,0.33-1.689,0.822
				c-0.401,0.493-0.611,1.182-0.628,2.068l4.872-0.372c-0.081-0.885-0.346-1.54-0.794-1.965
				C94.621,19.881,94.033,19.697,93.309,19.752z"/>
			<path d="M102.074,24.395l0.134-1.941l4.99,0.342l-0.133,1.942L102.074,24.395z"/>
			<path d="M122.174,21.918c-0.324,1.45-1.049,2.455-2.17,3.015c-1.123,0.56-2.561,0.643-4.314,0.251l-1.443-0.323l-1.164,5.194
				l-2.27-0.508l3.107-13.885l4,0.895c1.734,0.388,2.953,1.034,3.66,1.936C122.285,19.396,122.482,20.538,122.174,21.918z
				 M114.672,22.952l1.207,0.27c1.164,0.261,2.064,0.25,2.699-0.034c0.637-0.283,1.051-0.855,1.242-1.717
				c0.18-0.798,0.068-1.447-0.33-1.949c-0.4-0.502-1.117-0.869-2.148-1.1l-1.576-0.353L114.672,22.952z"/>
			<path d="M129.943,35.598l0.176-1.557l-0.072-0.031c-0.736,0.396-1.393,0.598-1.969,0.606c-0.576,0.01-1.244-0.149-2-0.477
				c-0.971-0.419-1.615-1.008-1.934-1.769c-0.318-0.76-0.27-1.619,0.145-2.578c0.439-1.018,1.15-1.624,2.129-1.814
				c0.982-0.191,2.256,0.024,3.826,0.646l1.729,0.684l0.229-0.527c0.271-0.631,0.328-1.167,0.17-1.607
				c-0.16-0.44-0.551-0.793-1.168-1.061c-0.508-0.219-1.025-0.354-1.555-0.406c-0.529-0.051-1.051-0.069-1.568-0.051l-0.029-1.795
				c0.656-0.048,1.336-0.007,2.035,0.122c0.701,0.129,1.334,0.315,1.898,0.561c1.258,0.542,2.088,1.227,2.492,2.051
				c0.402,0.825,0.352,1.824-0.156,2.997l-2.877,6.656L129.943,35.598z M127.434,32.817c0.764,0.329,1.467,0.381,2.111,0.154
				c0.646-0.227,1.137-0.724,1.467-1.492l0.371-0.857l-1.291-0.495c-1.004-0.392-1.795-0.537-2.371-0.436
				c-0.578,0.1-0.998,0.454-1.26,1.062c-0.191,0.44-0.207,0.838-0.049,1.192C126.568,32.3,126.91,32.59,127.434,32.817z"/>
			<path d="M145.996,32.26c0.387,0.249,0.689,0.481,0.906,0.697l-1.34,1.674c-0.232-0.242-0.494-0.456-0.789-0.645
				c-0.77-0.494-1.555-0.642-2.355-0.446c-0.801,0.196-1.457,0.695-1.973,1.499l-3.035,4.736l-1.926-1.234l5.809-9.062l1.508,0.966
				l-0.77,1.76l0.098,0.063c0.648-0.348,1.314-0.525,2-0.533C144.816,31.728,145.438,31.903,145.996,32.26z"/>
			<path d="M149.236,41.425l2.043-0.34l4.732-0.414l1.965,1.759l-6.311,0.556l-0.664,7.646l-2.004-1.792l0.574-5.821l-1.623-0.069
				L145.49,45.7l-1.691-1.513L153.9,32.903l1.688,1.513l-4.926,5.504l-1.469,1.467L149.236,41.425z"/>
			<path d="M153.764,52.146c0.361-0.305,0.719-0.446,1.07-0.421c0.354,0.025,0.68,0.216,0.982,0.573
				c0.305,0.362,0.438,0.722,0.395,1.08c-0.041,0.358-0.236,0.683-0.582,0.977c-0.352,0.298-0.711,0.438-1.078,0.42
				s-0.701-0.203-1.002-0.56c-0.303-0.357-0.43-0.715-0.387-1.075C153.207,52.779,153.406,52.448,153.764,52.146z"/>
			<path d="M159.65,62.422c-0.883-1.369-1.154-2.667-0.814-3.893c0.34-1.227,1.258-2.322,2.752-3.286
				c1.521-0.981,2.93-1.363,4.229-1.146c1.299,0.217,2.4,1.029,3.307,2.436c0.615,0.954,0.994,1.927,1.131,2.919l-1.92,0.416
				c-0.209-1.016-0.482-1.789-0.824-2.317c-1.01-1.565-2.553-1.678-4.629-0.338c-1.014,0.653-1.65,1.34-1.91,2.059
				c-0.258,0.719-0.145,1.455,0.34,2.207c0.553,0.857,1.289,1.529,2.205,2.018l-1.676,1.081c-0.424-0.213-0.805-0.487-1.143-0.82
				C160.357,63.424,160.01,62.979,159.65,62.422z"/>
			<path d="M171.994,75.022c-1.621,0.682-3.062,0.798-4.32,0.348c-1.258-0.449-2.199-1.416-2.824-2.899
				c-0.389-0.927-0.523-1.834-0.404-2.722c0.121-0.887,0.49-1.688,1.115-2.4c0.621-0.711,1.449-1.285,2.484-1.72
				c1.609-0.676,3.039-0.791,4.289-0.346c1.25,0.446,2.189,1.42,2.822,2.921c0.604,1.436,0.617,2.766,0.047,3.992
				C174.629,73.421,173.561,74.364,171.994,75.022z M168.959,67.799c-2.293,0.963-3.082,2.291-2.369,3.984
				c0.703,1.675,2.199,2.03,4.49,1.068c2.268-0.953,3.047-2.272,2.338-3.959c-0.373-0.885-0.934-1.404-1.688-1.555
				S170.053,67.34,168.959,67.799z"/>
			<path d="M169.844,89.691l-0.367-2.267l6.555-1.061c0.812-0.131,1.395-0.383,1.744-0.756c0.352-0.372,0.473-0.885,0.367-1.538
				c-0.141-0.871-0.527-1.464-1.16-1.779c-0.633-0.315-1.607-0.365-2.928-0.152l-5.295,0.857l-0.365-2.257l10.627-1.72l0.285,1.768
				l-1.342,0.542l0.02,0.116c0.553,0.212,1.014,0.577,1.379,1.093c0.365,0.516,0.604,1.11,0.713,1.782
				c0.264,1.634-0.117,2.806-1.146,3.518l0.025,0.154c0.576,0.229,1.057,0.604,1.443,1.127s0.641,1.151,0.76,1.888
				c0.205,1.268,0.035,2.244-0.512,2.927s-1.477,1.131-2.789,1.344l-6.928,1.121l-0.365-2.258l6.551-1.061
				c0.814-0.131,1.396-0.385,1.746-0.76s0.473-0.89,0.367-1.543c-0.143-0.877-0.52-1.476-1.133-1.793
				c-0.615-0.318-1.488-0.386-2.621-0.202L169.844,89.691z"/>
		</g>
		<g>
			<path d="M15.624,117.127l-1.217-7.957l14.065-2.15l1.217,7.957l-1.943,0.297l-0.864-5.658l-3.83,0.586l0.811,5.301l-1.924,0.295
				l-0.81-5.301l-4.417,0.674l0.865,5.658L15.624,117.127z"/>
			<path d="M22.295,129.115c-1,0.324-1.885,0.209-2.654-0.348c-0.77-0.557-1.374-1.512-1.813-2.871
				c-0.44-1.363-0.588-2.527-0.442-3.488l1.88-0.607c-0.167,1.383-0.082,2.594,0.253,3.631c0.433,1.34,1.054,1.879,1.863,1.617
				c0.259-0.084,0.451-0.227,0.576-0.432c0.125-0.203,0.226-0.506,0.301-0.904c0.076-0.4,0.133-0.939,0.171-1.621
				c0.076-1.326,0.274-2.273,0.597-2.838c0.322-0.562,0.847-0.963,1.576-1.199c0.876-0.283,1.671-0.15,2.385,0.4
				c0.712,0.551,1.266,1.434,1.66,2.65c0.389,1.203,0.513,2.422,0.373,3.654l-1.867-0.176c0.099-1.252,0.028-2.256-0.216-3.008
				c-0.372-1.148-0.884-1.617-1.538-1.406c-0.322,0.104-0.545,0.342-0.67,0.713c-0.126,0.371-0.22,1.123-0.284,2.256
				c-0.054,0.951-0.154,1.662-0.302,2.133s-0.37,0.855-0.665,1.156C23.184,128.727,22.789,128.957,22.295,129.115z"/>
			<path d="M27.558,140.428c-0.94,0.469-1.833,0.486-2.677,0.051c-0.844-0.434-1.585-1.291-2.221-2.568
				c-0.64-1.283-0.959-2.41-0.958-3.383l1.768-0.881c0.042,1.393,0.306,2.576,0.792,3.553c0.628,1.26,1.322,1.699,2.083,1.32
				c0.244-0.121,0.413-0.293,0.505-0.512c0.093-0.221,0.147-0.535,0.162-0.941c0.015-0.406-0.01-0.949-0.072-1.627
				c-0.124-1.324-0.067-2.289,0.167-2.895c0.235-0.605,0.694-1.08,1.379-1.422c0.825-0.412,1.63-0.398,2.418,0.041
				c0.787,0.436,1.466,1.229,2.036,2.371c0.564,1.133,0.869,2.316,0.915,3.557l-1.872,0.107c-0.088-1.254-0.31-2.234-0.663-2.943
				c-0.539-1.08-1.116-1.467-1.731-1.16c-0.302,0.15-0.487,0.42-0.556,0.805c-0.068,0.387-0.049,1.143,0.057,2.273
				c0.088,0.947,0.095,1.666,0.019,2.154c-0.076,0.486-0.237,0.9-0.484,1.24C28.378,139.91,28.022,140.195,27.558,140.428z"/>
			<path d="M30.471,150.771c-0.983-1.357-1.356-2.703-1.12-4.039c0.236-1.338,1.047-2.51,2.434-3.516
				c1.423-1.033,2.798-1.49,4.127-1.371c1.328,0.117,2.443,0.797,3.342,2.037c0.834,1.15,1.144,2.311,0.929,3.486
				c-0.214,1.174-0.934,2.203-2.157,3.092l-1,0.727l-4.212-5.807c-0.827,0.639-1.311,1.338-1.453,2.1
				c-0.142,0.76,0.071,1.531,0.64,2.314c0.373,0.514,0.769,0.957,1.188,1.332c0.419,0.373,0.925,0.732,1.521,1.078l-1.505,1.092
				c-0.543-0.297-1.026-0.643-1.451-1.039C31.329,151.859,30.901,151.363,30.471,150.771z M37.852,144.9
				c-0.427-0.588-0.955-0.926-1.585-1.008c-0.63-0.086-1.327,0.098-2.091,0.549l2.869,3.955c0.712-0.535,1.131-1.102,1.257-1.707
				C38.428,146.086,38.277,145.488,37.852,144.9z"/>
			<path d="M42.397,156.023l1.105-6.289l1.863,1.826l-0.883,4.406l4.402-0.961l1.849,1.811l-6.271,1.229l-1.129,6.592l-1.85-1.812
				l0.922-4.736l-4.71,1.025l-1.85-1.811L42.397,156.023z"/>
			<path d="M49.221,163.672l1.155-1.564l4.026,2.969l-1.155,1.566L49.221,163.672z"/>
			<path d="M65.157,178.482l-2.384-1.26l-0.942-7.781l-1.736,0.348l-2.485,4.709l-2.058-1.086l6.643-12.584l2.057,1.086l-3.17,6.008
				c0.925-0.393,1.835-0.76,2.727-1.102l5.522-2.227l2.341,1.238c-3.561,1.422-6.107,2.43-7.638,3.021L65.157,178.482z"/>
			<path d="M71.94,180.869l-2.156-0.768l3.604-10.143l2.155,0.766L71.94,180.869z M74.215,167.227
				c0.137-0.385,0.348-0.645,0.632-0.777c0.285-0.131,0.624-0.129,1.015,0.01c0.379,0.135,0.637,0.344,0.774,0.627
				c0.137,0.281,0.137,0.615,0,1.002c-0.13,0.367-0.338,0.617-0.624,0.754c-0.286,0.135-0.619,0.137-0.998,0.002
				c-0.391-0.141-0.655-0.352-0.792-0.639C74.088,167.92,74.085,167.594,74.215,167.227z"/>
			<path d="M82.188,181.98c0.543,0.125,1.107,0.166,1.69,0.123l-0.39,1.678c-0.271,0.051-0.61,0.068-1.016,0.049
				c-0.405-0.018-0.817-0.076-1.234-0.172c-2.111-0.492-2.907-1.848-2.39-4.074l1.314-5.648l-1.432-0.334l0.229-0.984l1.726-0.459
				l1.274-2.041l1.374,0.32l-0.542,2.33l2.985,0.697l-0.392,1.684l-2.986-0.691l-1.305,5.609c-0.125,0.537-0.083,0.965,0.125,1.283
				C81.43,181.67,81.752,181.879,82.188,181.98z"/>
			<path d="M93.519,185.408c-1.67-0.127-2.938-0.715-3.805-1.758c-0.867-1.047-1.235-2.424-1.104-4.131
				c0.134-1.754,0.675-3.098,1.625-4.035c0.95-0.936,2.188-1.346,3.715-1.229c1.417,0.107,2.503,0.623,3.259,1.547
				c0.755,0.922,1.076,2.139,0.961,3.645l-0.095,1.234l-7.152-0.545c-0.047,1.043,0.173,1.865,0.662,2.463
				c0.487,0.602,1.213,0.938,2.177,1.014c0.635,0.047,1.229,0.033,1.785-0.045c0.556-0.078,1.158-0.234,1.807-0.463l-0.142,1.854
				c-0.577,0.223-1.154,0.367-1.731,0.434C94.904,185.459,94.25,185.465,93.519,185.408z M93.818,175.982
				c-0.725-0.055-1.323,0.131-1.794,0.557s-0.783,1.076-0.935,1.949l4.871,0.373c0.055-0.889-0.107-1.574-0.487-2.064
				C95.095,176.311,94.543,176.039,93.818,175.982z"/>
			<path d="M102.32,181.031l-0.132-1.941l4.991-0.338l0.131,1.943L102.32,181.031z"/>
			<path d="M120.514,172.637c0.318,1.451,0.088,2.668-0.693,3.65c-0.781,0.98-2.049,1.664-3.805,2.049l-1.445,0.316l1.141,5.201
				l-2.273,0.498l-3.047-13.898l4.002-0.877c1.736-0.383,3.115-0.312,4.137,0.209C119.549,170.305,120.211,171.256,120.514,172.637z
				 M114.15,176.742l1.207-0.264c1.166-0.256,1.979-0.646,2.434-1.174c0.457-0.523,0.59-1.217,0.4-2.078
				c-0.174-0.799-0.549-1.342-1.123-1.629c-0.574-0.285-1.377-0.314-2.41-0.088l-1.578,0.346L114.15,176.742z"/>
			<path d="M134.652,177.826l-0.998-1.209l-0.072,0.031c-0.227,0.805-0.539,1.416-0.932,1.836c-0.396,0.422-0.973,0.789-1.734,1.105
				c-0.977,0.406-1.848,0.461-2.615,0.16c-0.768-0.299-1.352-0.93-1.752-1.896c-0.428-1.023-0.367-1.955,0.178-2.791
				c0.543-0.84,1.584-1.605,3.121-2.301l1.695-0.768l-0.221-0.531c-0.264-0.633-0.609-1.047-1.037-1.238s-0.953-0.158-1.576,0.102
				c-0.508,0.211-0.965,0.49-1.371,0.834c-0.404,0.344-0.779,0.707-1.127,1.092l-1.311-1.227c0.422-0.506,0.924-0.967,1.502-1.379
				c0.58-0.414,1.154-0.738,1.725-0.975c1.264-0.525,2.332-0.648,3.207-0.363c0.871,0.283,1.555,1.014,2.045,2.195l2.783,6.695
				L134.652,177.826z M130.908,177.697c0.768-0.32,1.293-0.789,1.582-1.412c0.285-0.619,0.268-1.318-0.053-2.092l-0.359-0.861
				l-1.254,0.586c-0.98,0.449-1.633,0.914-1.963,1.4c-0.33,0.482-0.367,1.031-0.113,1.643c0.186,0.443,0.459,0.732,0.824,0.865
				C129.936,177.957,130.383,177.914,130.908,177.697z"/>
			<path d="M140.857,161.912c0.391-0.242,0.732-0.414,1.02-0.516l0.926,1.934c-0.316,0.104-0.625,0.246-0.924,0.432
				c-0.779,0.479-1.254,1.121-1.424,1.928c-0.172,0.805-0.006,1.613,0.492,2.426l2.947,4.793l-1.949,1.199l-5.639-9.17l1.527-0.938
				l1.25,1.457l0.1-0.061c-0.031-0.734,0.098-1.41,0.389-2.033C139.865,162.742,140.293,162.258,140.857,161.912z"/>
			<path d="M149.885,161.744l-0.07-2.068l0.211-4.746l2.002-1.717l-0.277,6.328l7.492,1.664l-2.037,1.748l-5.697-1.332l-0.281,1.6
				l2.402,2.801l-1.723,1.477l-9.859-11.496l1.723-1.475l4.809,5.605l1.262,1.65L149.885,161.744z"/>
			<path d="M161.391,156.99c-0.354-0.312-0.545-0.646-0.57-0.998c-0.025-0.354,0.117-0.705,0.426-1.055
				c0.314-0.354,0.652-0.535,1.012-0.547c0.361-0.01,0.711,0.137,1.051,0.438c0.344,0.305,0.535,0.641,0.57,1.008
				c0.037,0.365-0.102,0.723-0.412,1.072c-0.309,0.35-0.646,0.527-1.008,0.535C162.096,157.453,161.74,157.301,161.391,156.99z"/>
			<path d="M170.617,147.492c-0.918,1.346-2.01,2.1-3.271,2.262c-1.264,0.162-2.627-0.258-4.096-1.262
				c-1.494-1.021-2.395-2.172-2.697-3.453c-0.305-1.279,0.018-2.611,0.961-3.992c0.641-0.938,1.391-1.662,2.252-2.174l1.129,1.607
				c-0.855,0.586-1.461,1.139-1.816,1.658c-1.051,1.537-0.557,3.004,1.484,4.398c0.998,0.682,1.877,1.002,2.639,0.961
				s1.396-0.43,1.902-1.17c0.574-0.842,0.908-1.779,1.004-2.814l1.648,1.125c-0.033,0.475-0.139,0.93-0.314,1.371
				C171.266,146.453,170.99,146.947,170.617,147.492z"/>
			<path d="M174.213,128.781c1.598,0.734,2.656,1.717,3.174,2.949c0.52,1.23,0.443,2.578-0.23,4.039
				c-0.418,0.914-0.996,1.627-1.732,2.139c-0.734,0.512-1.574,0.779-2.521,0.801c-0.945,0.023-1.928-0.201-2.947-0.67
				c-1.586-0.729-2.637-1.705-3.152-2.928c-0.518-1.223-0.434-2.574,0.246-4.055c0.65-1.414,1.621-2.324,2.91-2.73
				C171.25,127.92,172.668,128.07,174.213,128.781z M170.939,135.9c2.258,1.037,3.77,0.723,4.535-0.945
				c0.762-1.65,0.012-2.996-2.246-4.033c-2.234-1.029-3.734-0.711-4.498,0.951c-0.4,0.873-0.404,1.639-0.006,2.295
				C169.123,134.826,169.859,135.404,170.939,135.9z"/>
			<path d="M183.318,115.941l-0.463,2.25l-6.5-1.336c-0.809-0.164-1.443-0.137-1.9,0.088c-0.461,0.223-0.758,0.66-0.891,1.309
				c-0.178,0.863-0.025,1.555,0.453,2.074c0.48,0.518,1.375,0.912,2.684,1.182l5.252,1.078l-0.459,2.24l-10.545-2.164l0.361-1.754
				l1.445-0.031l0.025-0.115c-0.441-0.395-0.742-0.898-0.902-1.51c-0.16-0.613-0.17-1.254-0.035-1.92
				c0.334-1.621,1.107-2.582,2.322-2.881l0.031-0.154c-0.457-0.418-0.775-0.939-0.949-1.566c-0.178-0.625-0.191-1.303-0.041-2.035
				c0.258-1.258,0.764-2.109,1.518-2.553c0.754-0.445,1.783-0.535,3.086-0.268l6.873,1.412l-0.459,2.24l-6.502-1.336
				c-0.807-0.166-1.441-0.135-1.902,0.094c-0.459,0.227-0.758,0.662-0.889,1.311c-0.18,0.871-0.039,1.564,0.422,2.078
				c0.461,0.518,1.252,0.889,2.377,1.121L183.318,115.941z"/>
		</g>
	</g>
	<g>
		<path fill="#FFFFFF" d="M56.91,57.824v84.352h84.352V57.824H56.91z"/>
		<path d="M60.034,60.948v21.869h21.869V60.948H60.034z M88.151,60.948v9.372h-3.124v6.25h3.124v3.124h-3.124v3.124h3.124v6.248
			h-3.124v-3.124h-9.373v3.124h9.373v3.124h-9.373v3.125h6.248v3.123h-3.124v3.124h-3.124v3.125h3.124v3.123h-3.124v3.125h-3.124
			v-9.373h-3.125v6.248h-3.124v6.25h9.373v-3.125h3.124v3.125h6.249v9.373h9.372v-3.125h3.125v-6.248h9.372v-6.25h3.124v12.498
			h-3.124v-3.123h-3.124v6.248h-3.124v6.246h-3.124v-3.123h-9.373v3.123h3.125v3.125h3.124v3.125h-3.124v3.123h3.124v-3.123h3.125
			v3.123h3.124v-3.123h-3.124v-3.125h6.248v6.248h3.124v-6.248h3.124v6.248h9.373v-3.123h6.246v3.123h3.125v-3.123h-3.125v-3.125
			h-3.123v-3.125h-3.123v-3.123h6.246v3.123h3.125v3.125h3.125v-3.125h3.125v9.373h3.125v-12.496h-3.125v-3.123h-9.375v-3.125h3.125
			v-3.123h3.125v-9.375h3.125v3.125h3.125v-6.248h-3.125v-3.125h3.125v-9.372h-3.125v-3.124h-6.25v-3.124h-6.248v3.124h-3.123v3.124
			h-3.125v-3.124h-3.123v3.124h3.123v3.125h-6.248v-9.373h3.125V73.445h-3.125v12.497h-9.372v-6.249h3.124v3.124h3.124v-3.124
			h-3.124v-3.124h3.124v-3.125h-3.124V70.32h6.248v-3.124h-6.248v3.124h-3.124v-3.124h-3.124v3.124h3.124v3.125h3.124v3.125h-3.124
			v3.124h-3.124v3.124h-3.125v-6.248h3.125v-3.125h-3.125V70.32h-3.124v-9.372H88.151z M100.648,60.948v3.125h6.248v-3.125H100.648z
			 M116.268,60.948v21.869h21.871V60.948H116.268z"/>
		<path fill="#FFFFFF" d="M63.158,64.072v15.621h15.62V64.072H63.158z M119.393,64.072v15.621h15.621V64.072H119.393z"/>
		<path d="M66.282,67.196v9.373h9.373v-9.373H66.282z M122.516,67.196v9.373h9.373v-9.373H122.516z"/>
		<path fill="#FFFFFF" d="M88.151,70.32v6.25h6.249v-3.125h-3.124V70.32H88.151z M88.151,79.693v3.124h3.125v3.125h3.124v3.124
			h3.125v-3.124h-3.125v-3.125h-3.124v-3.124H88.151z"/>
		<path d="M60.034,85.941v6.248h6.249v-6.248H60.034z"/>
		<path fill="#FFFFFF" d="M88.151,89.065v3.124h3.125v3.125h-3.125v3.123h-6.249v3.124h-3.124v3.125h3.124v3.123h-3.124v3.125h3.124
			v-3.125h3.125v6.25h3.124v6.248h3.125v-3.123h3.124v-6.25h-3.124v-3.125h-6.248v-3.123h-3.125v-3.125h6.249v-3.124h3.125v-3.123
			h6.249v3.123h-3.125v3.124h3.125v-3.124h3.124v3.124h3.124v3.125h3.124v-3.125h-3.124v-6.247h3.124v3.123h3.124v3.124h3.125v3.125
			h6.248v-3.125h3.123v6.248h3.123v9.375h3.125v-9.375h3.125v-6.248h3.125v-6.247h-3.125v-3.125h-3.125v6.248h-3.125v-3.123h-9.371
			v3.123h-6.248v-3.123h-3.124v-3.125h-3.124v3.125h-3.124v-3.125h-9.373v-3.124H88.151z"/>
		<path d="M69.406,92.189v3.125h-9.373v18.745h3.125v-9.373h3.124v-3.125h-3.124v-3.124h6.248v-3.123h3.125v-3.125H69.406z
			 M116.268,98.437v3.124h3.125v-3.124H116.268z"/>
		<path fill="#FFFFFF" d="M94.399,104.686v3.123h6.249v3.125h3.124v-3.125h-3.124v-3.123H94.399z"/>
		<path d="M125.639,104.686v3.123h3.125v-3.123H125.639z M88.151,110.934v3.125h3.125v-3.125H88.151z"/>
		<path fill="#FFFFFF" d="M113.145,114.059v9.373h9.371v-9.373H113.145z"/>
		<path d="M60.034,117.184v21.867h21.869v-21.867H60.034z M116.268,117.184v3.123h3.125v-3.123H116.268z M135.014,117.184v3.123
			h3.125v-3.123H135.014z"/>
		<path fill="#FFFFFF" d="M63.158,120.307v15.621h15.62v-15.621H63.158z"/>
		<path d="M66.282,123.432v9.371h9.373v-9.371H66.282z"/>
		<path fill="#FFFFFF" d="M110.02,126.555v3.123h3.125v-3.123H110.02z M128.764,126.555v3.123h3.125v-3.123H128.764z
			 M94.399,129.678v3.125h3.125v-3.125H94.399z M116.268,129.678v3.125h-3.123v3.125h6.248v-6.25H116.268z"/>
		<path d="M85.027,132.803v6.248h3.124v-6.248H85.027z"/>
	</g>
</g>
</svg>
